<?xml version="1.0" encoding="UTF-8"?>
<!DOCTYPE svg PUBLIC "-//W3C//DTD SVG 1.1//EN" "http://www.w3.org/Graphics/SVG/1.1/DTD/svg11.dtd">
<svg version="1.1" xmlns="http://www.w3.org/2000/svg" xmlns:xlink="http://www.w3.org/1999/xlink" x="0" y="0" width="235.761" height="400" viewBox="0, 0, 235.761, 400">
  <g id="Layer_1">
    <path d="M39.102,175.008 L39.102,171.305 L119.162,171.305 L199.222,171.305 L199.222,175.008 L199.222,178.712 L119.162,178.712 L39.102,178.712 z M49.359,164.182 L49.359,161.048 L119.732,161.048 L190.105,161.048 L190.105,164.182 L190.105,167.316 L119.732,167.316 L49.359,167.316 z M49.773,153.498 C50.037,148.354 52.778,80.426 52.778,79.029 C52.778,77.91 53.093,77.854 59.331,77.854 C64.913,77.854 65.884,77.987 65.884,78.751 C65.884,81.068 68.731,147.15 69.031,151.788 L69.372,157.059 L59.481,157.059 L49.59,157.059 z M90.81,153.213 C91.182,145.076 93.805,80.066 93.805,78.989 C93.805,77.921 94.194,77.854 100.358,77.854 C106.266,77.854 106.911,77.954 106.911,78.87 C106.911,81.293 109.746,147.021 110.056,151.788 L110.399,157.059 L100.516,157.059 L90.634,157.059 z M130.515,151.788 C130.706,148.889 131.372,133.184 131.995,116.887 C132.618,100.59 133.278,85.141 133.461,82.555 L133.795,77.854 L140.297,77.854 L146.799,77.854 L146.799,80.818 C146.799,83.097 148.766,131.153 149.785,153.784 L149.933,157.061 L140.05,157.06 L130.167,157.059 L130.515,151.788 z M169.973,153.213 C170.197,149.445 173.01,80.472 173.01,78.736 C173.01,77.991 174.028,77.854 179.563,77.854 C185.953,77.854 186.116,77.886 186.116,79.119 C186.116,81.413 188.906,146.405 189.236,151.788 L189.558,157.059 L179.651,157.059 L169.744,157.059 z M40.596,73.44 C40.435,72.89 40.14,71.52 39.941,70.396 L39.58,68.351 L45.467,66.272 C48.705,65.128 66.669,58.955 85.388,52.553 L119.422,40.914 L159.18,54.617 C181.046,62.154 198.989,68.359 199.052,68.406 C199.115,68.453 198.842,69.765 198.445,71.321 L197.723,74.15 L119.307,74.295 C44.984,74.431 40.875,74.387 40.596,73.44 z M175.546,67.68 C175.248,67.412 162.5,62.803 147.217,57.439 L119.428,47.684 L91.659,57.409 C76.386,62.757 63.646,67.366 63.348,67.65 C63.024,67.96 85.548,68.167 119.447,68.167 C150.844,68.167 175.846,67.95 175.546,67.68 z" fill="#000000" id="path2883"/>
    <path d="M226.881,119.493 C227.55,179.628 179.392,228.944 119.258,229.704 C59.125,230.464 9.736,182.382 8.883,122.249 C8.031,62.117 56.038,12.654 116.169,11.711 C176.3,10.767 225.836,58.698 226.872,118.827" fill-opacity="0" stroke="#000000" stroke-width="7.19" stroke-linecap="round" stroke-linejoin="round" id="path3048"/>
    <text transform="matrix(1, 0, 0, 1, 117.88, 311.759)">
      <tspan x="-106.293" y="-46.213" font-family="GillSans" font-size="29" fill="#000000">openbylaws.org.za</tspan>
    </text>
  </g>
</svg>
